<?xml version="1.0" encoding="UTF-8" standalone="no"?><!DOCTYPE svg PUBLIC "-//W3C//DTD SVG 1.1//EN" "http://www.w3.org/Graphics/SVG/1.1/DTD/svg11.dtd"><svg width="100%" height="100%" viewBox="0 0 32 32" version="1.1" xmlns="http://www.w3.org/2000/svg" xmlns:xlink="http://www.w3.org/1999/xlink" xml:space="preserve" xmlns:serif="http://www.serif.com/" style="fill-rule:evenodd;clip-rule:evenodd;stroke-linejoin:round;stroke-miterlimit:2;"><g><path d="M31,4.264l0,23.473c0,1.801 -1.462,3.264 -3.264,3.264l-23.473,0c-1.801,0 -3.264,-1.462 -3.264,-3.264l0,-23.473c0,-1.801 1.462,-3.264 3.264,-3.264l23.473,0c1.801,0 3.264,1.462 3.264,3.264Z" style="fill:#f8f8f8;"/><path d="M27.292,2.45l-22.583,0c-1.239,0 -2.258,1.019 -2.258,2.258l0,22.583c0,1.239 1.019,2.258 2.258,2.258l22.583,0c1.239,0 2.258,-1.019 2.258,-2.258l0,-22.583c0,-1.239 -1.019,-2.258 -2.258,-2.258Zm-12.751,16.607l-4.517,4.517c-0.212,0.212 -0.499,0.331 -0.799,0.331c-0.3,0 -0.587,-0.119 -0.799,-0.331l-2.258,-2.258c-0.212,-0.212 -0.331,-0.499 -0.331,-0.799c0,-0.62 0.51,-1.13 1.13,-1.13c0.3,0 0.587,0.119 0.799,0.331l1.459,1.461l3.718,-3.719c0.212,-0.212 0.499,-0.331 0.799,-0.331c0.62,0 1.13,0.51 1.13,1.13c0,0.3 -0.119,0.587 -0.331,0.799Zm0,-9.033l-4.517,4.517c-0.212,0.212 -0.499,0.331 -0.799,0.331c-0.3,0 -0.587,-0.119 -0.799,-0.331l-2.258,-2.258c-0.212,-0.212 -0.331,-0.499 -0.331,-0.799c0,-0.62 0.51,-1.13 1.13,-1.13c0.3,0 0.587,0.119 0.799,0.331l1.459,1.461l3.718,-3.719c0.212,-0.212 0.499,-0.331 0.799,-0.331c0.62,0 1.13,0.51 1.13,1.13c0,0.3 -0.119,0.587 -0.331,0.799Zm10.493,11.622l-6.775,0c-0.619,0 -1.129,-0.51 -1.129,-1.129c0,-0.619 0.51,-1.129 1.129,-1.129l6.775,0c0.619,0 1.129,0.51 1.129,1.129c0,0.619 -0.51,1.129 -1.129,1.129Zm0,-9.033l-6.775,0c-0.619,0 -1.129,-0.51 -1.129,-1.129c0,-0.619 0.51,-1.129 1.129,-1.129l6.775,0c0.619,0 1.129,0.51 1.129,1.129c0,0.619 -0.51,1.129 -1.129,1.129Z" style="fill:#00d78d;fill-rule:nonzero;"/></g></svg>